<svg width="31" height="31" viewBox="0 0 31 31" fill="none" xmlns="http://www.w3.org/2000/svg">
<path d="M15.8875 2.58333H15.5C13.8038 2.58333 12.1241 2.91743 10.557 3.56655C8.98989 4.21568 7.56596 5.16711 6.36654 6.36654C3.94419 8.78888 2.58334 12.0743 2.58334 15.5C2.58334 18.9257 3.94419 22.2111 6.36654 24.6335C7.56596 25.8329 8.98989 26.7843 10.557 27.4334C12.1241 28.0826 13.8038 28.4167 15.5 28.4167C19.375 28.4167 21.5708 27.125 23.8958 25.1875C16.7917 27.125 10.3333 21.9583 10.3333 15.5C10.3333 9.04166 16.7917 3.875 23.8958 5.8125C22.8459 4.76454 21.5958 3.93859 20.2199 3.38382C18.8441 2.82906 17.3707 2.55682 15.8875 2.58333ZM21.7 8.00833L19.7625 12.5292L14.9833 12.9167L18.7292 16.1458L17.5667 20.6667L21.7 18.0833L25.8333 20.6667L24.5417 16.1458L28.4167 12.9167L23.6375 12.5292L21.7 8.00833Z" fill="#4653FF"/>
</svg>
